<mxfile host="app.diagrams.net" agent="Mozilla/5.0 (Windows NT 10.0; Win64; x64) AppleWebKit/537.36 (KHTML, like Gecko) Chrome/134.0.0.0 Safari/537.36" version="26.1.0" pages="4">
  <diagram name="Página-1" id="VBFnpm9yD_07cUE9K0gD">
    <mxGraphModel dx="1050" dy="557" grid="1" gridSize="10" guides="1" tooltips="1" connect="1" arrows="1" fold="1" page="1" pageScale="1" pageWidth="827" pageHeight="1169" math="0" shadow="0">
      <root>
        <mxCell id="0" />
        <mxCell id="1" parent="0" />
        <mxCell id="nIFAz9EEk4e-cZvniIR6-1" value="&lt;font style=&quot;vertical-align: inherit;&quot;&gt;&lt;font style=&quot;vertical-align: inherit;&quot;&gt;Caba lá&lt;/font&gt;&lt;/font&gt;" style="shape=umlActor;verticalLabelPosition=bottom;verticalAlign=top;html=1;outlineConnect=0;" vertex="1" parent="1">
          <mxGeometry x="90" y="10" width="50" height="530" as="geometry" />
        </mxCell>
        <mxCell id="nIFAz9EEk4e-cZvniIR6-2" value="" style="endArrow=none;html=1;rounded=0;" edge="1" parent="1">
          <mxGeometry width="50" height="50" relative="1" as="geometry">
            <mxPoint x="150" y="200" as="sourcePoint" />
            <mxPoint x="350" y="90" as="targetPoint" />
          </mxGeometry>
        </mxCell>
        <mxCell id="nIFAz9EEk4e-cZvniIR6-3" value="&lt;font style=&quot;vertical-align: inherit;&quot;&gt;&lt;font style=&quot;vertical-align: inherit;&quot;&gt;Vamos fazer uma reserva?&lt;/font&gt;&lt;/font&gt;" style="ellipse;whiteSpace=wrap;html=1;" vertex="1" parent="1">
          <mxGeometry x="340" y="30" width="220" height="130" as="geometry" />
        </mxCell>
        <mxCell id="nIFAz9EEk4e-cZvniIR6-4" value="&lt;font style=&quot;vertical-align: inherit;&quot;&gt;&lt;font style=&quot;vertical-align: inherit;&quot;&gt;caba acula&lt;/font&gt;&lt;/font&gt;" style="shape=umlActor;verticalLabelPosition=bottom;verticalAlign=top;html=1;outlineConnect=0;" vertex="1" parent="1">
          <mxGeometry x="500" y="360" width="190" height="60" as="geometry" />
        </mxCell>
        <mxCell id="nIFAz9EEk4e-cZvniIR6-6" value="" style="endArrow=none;html=1;rounded=0;" edge="1" parent="1">
          <mxGeometry width="50" height="50" relative="1" as="geometry">
            <mxPoint x="580" y="350" as="sourcePoint" />
            <mxPoint x="430" y="330" as="targetPoint" />
          </mxGeometry>
        </mxCell>
        <mxCell id="nIFAz9EEk4e-cZvniIR6-7" value="&lt;font style=&quot;vertical-align: inherit;&quot;&gt;&lt;font style=&quot;vertical-align: inherit;&quot;&gt;Num quero naum&lt;/font&gt;&lt;/font&gt;" style="ellipse;whiteSpace=wrap;html=1;" vertex="1" parent="1">
          <mxGeometry x="260" y="260" width="180" height="100" as="geometry" />
        </mxCell>
        <mxCell id="nIFAz9EEk4e-cZvniIR6-9" value="" style="endArrow=none;html=1;rounded=0;entryX=0.074;entryY=0.687;entryDx=0;entryDy=0;entryPerimeter=0;" edge="1" parent="1" target="nIFAz9EEk4e-cZvniIR6-10">
          <mxGeometry width="50" height="50" relative="1" as="geometry">
            <mxPoint x="110" y="890" as="sourcePoint" />
            <mxPoint x="260" y="780" as="targetPoint" />
          </mxGeometry>
        </mxCell>
        <mxCell id="nIFAz9EEk4e-cZvniIR6-10" value="&lt;font style=&quot;vertical-align: inherit;&quot;&gt;&lt;font style=&quot;vertical-align: inherit;&quot;&gt;Quero fazer uma reserva para amanhã.&lt;/font&gt;&lt;/font&gt;" style="ellipse;whiteSpace=wrap;html=1;" vertex="1" parent="1">
          <mxGeometry x="290" y="710" width="130" height="80" as="geometry" />
        </mxCell>
        <mxCell id="nIFAz9EEk4e-cZvniIR6-11" value="&lt;font style=&quot;vertical-align: inherit;&quot;&gt;&lt;font style=&quot;vertical-align: inherit;&quot;&gt;Temos livre o quarto 23&lt;/font&gt;&lt;/font&gt;" style="ellipse;whiteSpace=wrap;html=1;" vertex="1" parent="1">
          <mxGeometry x="300" y="800" width="120" height="80" as="geometry" />
        </mxCell>
        <mxCell id="nIFAz9EEk4e-cZvniIR6-12" value="&lt;font style=&quot;vertical-align: inherit;&quot;&gt;&lt;font style=&quot;vertical-align: inherit;&quot;&gt;Vai querer&lt;/font&gt;&lt;/font&gt;" style="ellipse;whiteSpace=wrap;html=1;" vertex="1" parent="1">
          <mxGeometry x="300" y="900" width="120" height="80" as="geometry" />
        </mxCell>
        <mxCell id="nIFAz9EEk4e-cZvniIR6-13" value="&lt;font style=&quot;vertical-align: inherit;&quot;&gt;&lt;font style=&quot;vertical-align: inherit;&quot;&gt;Num quero não&lt;/font&gt;&lt;/font&gt;" style="ellipse;whiteSpace=wrap;html=1;" vertex="1" parent="1">
          <mxGeometry x="300" y="1010" width="120" height="80" as="geometry" />
        </mxCell>
        <mxCell id="nIFAz9EEk4e-cZvniIR6-15" value="&lt;font style=&quot;vertical-align: inherit;&quot;&gt;&lt;font style=&quot;vertical-align: inherit;&quot;&gt;Recepcionista&lt;/font&gt;&lt;/font&gt;" style="shape=umlActor;verticalLabelPosition=bottom;verticalAlign=top;html=1;outlineConnect=0;" vertex="1" parent="1">
          <mxGeometry x="640" y="800" width="80" height="190" as="geometry" />
        </mxCell>
        <mxCell id="nIFAz9EEk4e-cZvniIR6-17" value="" style="endArrow=none;html=1;rounded=0;exitX=1;exitY=0.5;exitDx=0;exitDy=0;" edge="1" parent="1" source="nIFAz9EEk4e-cZvniIR6-11">
          <mxGeometry width="50" height="50" relative="1" as="geometry">
            <mxPoint x="540" y="910" as="sourcePoint" />
            <mxPoint x="630" y="870" as="targetPoint" />
          </mxGeometry>
        </mxCell>
        <mxCell id="nIFAz9EEk4e-cZvniIR6-19" value="" style="endArrow=none;html=1;rounded=0;exitX=0.97;exitY=0.592;exitDx=0;exitDy=0;exitPerimeter=0;" edge="1" parent="1" source="nIFAz9EEk4e-cZvniIR6-12">
          <mxGeometry width="50" height="50" relative="1" as="geometry">
            <mxPoint x="510" y="940" as="sourcePoint" />
            <mxPoint x="630" y="880" as="targetPoint" />
          </mxGeometry>
        </mxCell>
        <mxCell id="nIFAz9EEk4e-cZvniIR6-20" value="" style="endArrow=none;html=1;rounded=0;entryX=0.017;entryY=0.337;entryDx=0;entryDy=0;entryPerimeter=0;" edge="1" parent="1" source="nIFAz9EEk4e-cZvniIR6-8" target="nIFAz9EEk4e-cZvniIR6-13">
          <mxGeometry width="50" height="50" relative="1" as="geometry">
            <mxPoint x="110" y="920" as="sourcePoint" />
            <mxPoint x="230" y="970" as="targetPoint" />
          </mxGeometry>
        </mxCell>
        <mxCell id="nIFAz9EEk4e-cZvniIR6-8" value="&lt;font style=&quot;vertical-align: inherit;&quot;&gt;&lt;font style=&quot;vertical-align: inherit;&quot;&gt;Ygor&lt;/font&gt;&lt;/font&gt;" style="shape=umlActor;verticalLabelPosition=bottom;verticalAlign=top;html=1;outlineConnect=0;" vertex="1" parent="1">
          <mxGeometry x="70" y="840" width="50" height="130" as="geometry" />
        </mxCell>
        <mxCell id="nIFAz9EEk4e-cZvniIR6-34" value="" style="endArrow=classic;html=1;rounded=0;" edge="1" parent="1">
          <mxGeometry width="50" height="50" relative="1" as="geometry">
            <mxPoint x="390" y="290" as="sourcePoint" />
            <mxPoint x="440" y="240" as="targetPoint" />
          </mxGeometry>
        </mxCell>
        <mxCell id="nIFAz9EEk4e-cZvniIR6-35" value="" style="endArrow=classic;html=1;rounded=0;" edge="1" parent="1">
          <mxGeometry width="50" height="50" relative="1" as="geometry">
            <mxPoint x="390" y="290" as="sourcePoint" />
            <mxPoint x="440" y="240" as="targetPoint" />
          </mxGeometry>
        </mxCell>
      </root>
    </mxGraphModel>
  </diagram>
  <diagram id="i9jqxNF0Bt6AHRrqmJ0_" name="Página-2">
    <mxGraphModel dx="1235" dy="655" grid="1" gridSize="10" guides="1" tooltips="1" connect="1" arrows="1" fold="1" page="1" pageScale="1" pageWidth="827" pageHeight="1169" math="0" shadow="0">
      <root>
        <mxCell id="0" />
        <mxCell id="1" parent="0" />
        <mxCell id="b8Lk_GsScozw5vqbpNoz-1" value="" style="rounded=0;whiteSpace=wrap;html=1;rotation=90;align=center;" vertex="1" parent="1">
          <mxGeometry x="106.43" y="109.39" width="567.13" height="363.44" as="geometry" />
        </mxCell>
        <mxCell id="b8Lk_GsScozw5vqbpNoz-2" value="Actor" style="shape=umlActor;verticalLabelPosition=bottom;verticalAlign=top;html=1;outlineConnect=0;fillColor=#1ba1e2;fontColor=#ffffff;strokeColor=#000000;" vertex="1" parent="1">
          <mxGeometry x="110" y="190" width="30" height="60" as="geometry" />
        </mxCell>
        <mxCell id="b8Lk_GsScozw5vqbpNoz-3" value="Actor" style="shape=umlActor;verticalLabelPosition=bottom;verticalAlign=top;html=1;outlineConnect=0;fillColor=#1ba1e2;fontColor=#ffffff;strokeColor=#000000;" vertex="1" parent="1">
          <mxGeometry x="113" y="460" width="30" height="60" as="geometry" />
        </mxCell>
        <mxCell id="b8Lk_GsScozw5vqbpNoz-4" value="Actor" style="shape=umlActor;verticalLabelPosition=bottom;verticalAlign=top;html=1;outlineConnect=0;strokeColor=#000000;fillColor=#1ba1e2;fontColor=#ffffff;" vertex="1" parent="1">
          <mxGeometry x="650" y="273" width="30" height="60" as="geometry" />
        </mxCell>
        <mxCell id="b8Lk_GsScozw5vqbpNoz-5" value="Checar Saldo" style="ellipse;whiteSpace=wrap;html=1;fillColor=#1ba1e2;strokeColor=#006EAF;fontColor=#ffffff;" vertex="1" parent="1">
          <mxGeometry x="315.79" y="60" width="120" height="60" as="geometry" />
        </mxCell>
        <mxCell id="b8Lk_GsScozw5vqbpNoz-6" value="Depositar" style="ellipse;whiteSpace=wrap;html=1;fillColor=#1ba1e2;strokeColor=#006EAF;fontColor=#ffffff;" vertex="1" parent="1">
          <mxGeometry x="316" y="130" width="120" height="60" as="geometry" />
        </mxCell>
        <mxCell id="b8Lk_GsScozw5vqbpNoz-7" value="Sacar" style="ellipse;whiteSpace=wrap;html=1;fillColor=#1ba1e2;fontColor=#ffffff;strokeColor=#006EAF;" vertex="1" parent="1">
          <mxGeometry x="316" y="200" width="120" height="57" as="geometry" />
        </mxCell>
        <mxCell id="b8Lk_GsScozw5vqbpNoz-8" value="Transferir" style="ellipse;whiteSpace=wrap;html=1;fillColor=#1ba1e2;fontColor=#ffffff;strokeColor=#006EAF;" vertex="1" parent="1">
          <mxGeometry x="316" y="273" width="120" height="60" as="geometry" />
        </mxCell>
        <mxCell id="b8Lk_GsScozw5vqbpNoz-9" value="Manutenção" style="ellipse;whiteSpace=wrap;html=1;fillColor=#1ba1e2;fontColor=#ffffff;strokeColor=#006EAF;" vertex="1" parent="1">
          <mxGeometry x="316" y="380" width="120" height="80" as="geometry" />
        </mxCell>
        <mxCell id="b8Lk_GsScozw5vqbpNoz-10" value="Reparo" style="ellipse;whiteSpace=wrap;html=1;fillColor=#1ba1e2;fontColor=#ffffff;strokeColor=#006EAF;" vertex="1" parent="1">
          <mxGeometry x="316" y="480" width="120" height="80" as="geometry" />
        </mxCell>
        <mxCell id="b8Lk_GsScozw5vqbpNoz-13" value="" style="endArrow=none;html=1;rounded=0;entryX=0;entryY=0.5;entryDx=0;entryDy=0;" edge="1" parent="1" target="b8Lk_GsScozw5vqbpNoz-10">
          <mxGeometry width="50" height="50" relative="1" as="geometry">
            <mxPoint x="150" y="500" as="sourcePoint" />
            <mxPoint x="300" y="550" as="targetPoint" />
          </mxGeometry>
        </mxCell>
        <mxCell id="b8Lk_GsScozw5vqbpNoz-14" value="" style="endArrow=none;html=1;rounded=0;exitX=1;exitY=0.5;exitDx=0;exitDy=0;" edge="1" parent="1" source="b8Lk_GsScozw5vqbpNoz-9">
          <mxGeometry width="50" height="50" relative="1" as="geometry">
            <mxPoint x="440" y="470" as="sourcePoint" />
            <mxPoint x="630" y="340" as="targetPoint" />
          </mxGeometry>
        </mxCell>
        <mxCell id="b8Lk_GsScozw5vqbpNoz-15" value="" style="endArrow=none;html=1;rounded=0;exitX=1;exitY=0.5;exitDx=0;exitDy=0;" edge="1" parent="1" source="b8Lk_GsScozw5vqbpNoz-10">
          <mxGeometry width="50" height="50" relative="1" as="geometry">
            <mxPoint x="429.99784" y="558.9518599999999" as="sourcePoint" />
            <mxPoint x="640" y="360" as="targetPoint" />
          </mxGeometry>
        </mxCell>
        <mxCell id="b8Lk_GsScozw5vqbpNoz-17" value="" style="endArrow=none;html=1;rounded=0;entryX=0;entryY=0.5;entryDx=0;entryDy=0;" edge="1" parent="1" target="b8Lk_GsScozw5vqbpNoz-8">
          <mxGeometry width="50" height="50" relative="1" as="geometry">
            <mxPoint x="150" y="250" as="sourcePoint" />
            <mxPoint x="200" y="200" as="targetPoint" />
          </mxGeometry>
        </mxCell>
        <mxCell id="b8Lk_GsScozw5vqbpNoz-18" value="" style="endArrow=none;html=1;rounded=0;entryX=0;entryY=0.5;entryDx=0;entryDy=0;" edge="1" parent="1" target="b8Lk_GsScozw5vqbpNoz-7">
          <mxGeometry width="50" height="50" relative="1" as="geometry">
            <mxPoint x="150" y="240" as="sourcePoint" />
            <mxPoint x="200" y="190" as="targetPoint" />
          </mxGeometry>
        </mxCell>
        <mxCell id="b8Lk_GsScozw5vqbpNoz-19" value="" style="endArrow=none;html=1;rounded=0;entryX=0.003;entryY=0.717;entryDx=0;entryDy=0;entryPerimeter=0;" edge="1" parent="1" target="b8Lk_GsScozw5vqbpNoz-6">
          <mxGeometry width="50" height="50" relative="1" as="geometry">
            <mxPoint x="150" y="220" as="sourcePoint" />
            <mxPoint x="200" y="170" as="targetPoint" />
          </mxGeometry>
        </mxCell>
        <mxCell id="b8Lk_GsScozw5vqbpNoz-20" value="" style="endArrow=none;html=1;rounded=0;entryX=0;entryY=1;entryDx=0;entryDy=0;" edge="1" parent="1" target="b8Lk_GsScozw5vqbpNoz-5">
          <mxGeometry width="50" height="50" relative="1" as="geometry">
            <mxPoint x="150" y="200" as="sourcePoint" />
            <mxPoint x="200" y="150" as="targetPoint" />
          </mxGeometry>
        </mxCell>
        <mxCell id="b8Lk_GsScozw5vqbpNoz-21" value="" style="endArrow=none;html=1;rounded=0;exitX=1;exitY=0.5;exitDx=0;exitDy=0;" edge="1" parent="1" source="b8Lk_GsScozw5vqbpNoz-8">
          <mxGeometry width="50" height="50" relative="1" as="geometry">
            <mxPoint x="580" y="350" as="sourcePoint" />
            <mxPoint x="630" y="300" as="targetPoint" />
          </mxGeometry>
        </mxCell>
        <mxCell id="b8Lk_GsScozw5vqbpNoz-22" value="" style="endArrow=none;html=1;rounded=0;exitX=1;exitY=0.5;exitDx=0;exitDy=0;" edge="1" parent="1" source="b8Lk_GsScozw5vqbpNoz-7">
          <mxGeometry width="50" height="50" relative="1" as="geometry">
            <mxPoint x="610" y="290" as="sourcePoint" />
            <mxPoint x="630" y="290" as="targetPoint" />
          </mxGeometry>
        </mxCell>
        <mxCell id="b8Lk_GsScozw5vqbpNoz-23" value="" style="endArrow=none;html=1;rounded=0;exitX=1;exitY=0.5;exitDx=0;exitDy=0;" edge="1" parent="1" source="b8Lk_GsScozw5vqbpNoz-6">
          <mxGeometry width="50" height="50" relative="1" as="geometry">
            <mxPoint x="590" y="253.5" as="sourcePoint" />
            <mxPoint x="630" y="280" as="targetPoint" />
          </mxGeometry>
        </mxCell>
        <mxCell id="b8Lk_GsScozw5vqbpNoz-24" value="" style="endArrow=none;html=1;rounded=0;exitX=1;exitY=0.5;exitDx=0;exitDy=0;" edge="1" parent="1" source="b8Lk_GsScozw5vqbpNoz-5">
          <mxGeometry width="50" height="50" relative="1" as="geometry">
            <mxPoint x="620" y="245" as="sourcePoint" />
            <mxPoint x="640" y="280" as="targetPoint" />
          </mxGeometry>
        </mxCell>
        <mxCell id="V19gMfnMo0lwfsS54bOH-1" value="" style="endArrow=none;html=1;rounded=0;entryX=0;entryY=0.5;entryDx=0;entryDy=0;" edge="1" parent="1" target="b8Lk_GsScozw5vqbpNoz-9">
          <mxGeometry width="50" height="50" relative="1" as="geometry">
            <mxPoint x="150" y="480" as="sourcePoint" />
            <mxPoint x="200" y="430" as="targetPoint" />
          </mxGeometry>
        </mxCell>
        <mxCell id="V19gMfnMo0lwfsS54bOH-2" value="Sistema De Caixa Eletrônico" style="text;html=1;align=center;verticalAlign=middle;whiteSpace=wrap;rounded=0;" vertex="1" parent="1">
          <mxGeometry x="220" y="20" width="340" height="30" as="geometry" />
        </mxCell>
      </root>
    </mxGraphModel>
  </diagram>
  <diagram id="X8B3Pwxykipa2em90DdF" name="Página-3">
    <mxGraphModel dx="1500" dy="796" grid="1" gridSize="10" guides="1" tooltips="1" connect="1" arrows="1" fold="1" page="1" pageScale="1" pageWidth="827" pageHeight="1169" math="0" shadow="0">
      <root>
        <mxCell id="0" />
        <mxCell id="1" parent="0" />
        <mxCell id="qpCdRHngfCoECyfmMNlS-4" value="" style="rounded=0;whiteSpace=wrap;html=1;rotation=90;" vertex="1" parent="1">
          <mxGeometry x="16.69" y="-8.67" width="796.6" height="829.56" as="geometry" />
        </mxCell>
        <mxCell id="qpCdRHngfCoECyfmMNlS-17" value="&lt;font style=&quot;font-size: 24px;&quot;&gt;Hotel Cabras de Lampião&lt;/font&gt;" style="text;html=1;align=center;verticalAlign=middle;whiteSpace=wrap;rounded=0;strokeColor=#000000;fillColor=none;shadow=0;" vertex="1" parent="1">
          <mxGeometry x="100" y="19.7" width="640" height="50.3" as="geometry" />
        </mxCell>
        <mxCell id="qpCdRHngfCoECyfmMNlS-98" value="" style="edgeStyle=orthogonalEdgeStyle;rounded=0;orthogonalLoop=1;jettySize=auto;html=1;" edge="1" parent="1" source="qpCdRHngfCoECyfmMNlS-23" target="qpCdRHngfCoECyfmMNlS-97">
          <mxGeometry relative="1" as="geometry" />
        </mxCell>
        <mxCell id="qpCdRHngfCoECyfmMNlS-23" value="" style="shape=umlActor;verticalLabelPosition=bottom;verticalAlign=top;html=1;outlineConnect=0;" vertex="1" parent="1">
          <mxGeometry x="90" y="290" width="50" height="130" as="geometry" />
        </mxCell>
        <mxCell id="qpCdRHngfCoECyfmMNlS-96" value="" style="edgeStyle=orthogonalEdgeStyle;rounded=0;orthogonalLoop=1;jettySize=auto;html=1;" edge="1" parent="1" source="qpCdRHngfCoECyfmMNlS-24" target="qpCdRHngfCoECyfmMNlS-95">
          <mxGeometry relative="1" as="geometry" />
        </mxCell>
        <mxCell id="qpCdRHngfCoECyfmMNlS-24" value="" style="shape=umlActor;verticalLabelPosition=bottom;verticalAlign=top;html=1;outlineConnect=0;" vertex="1" parent="1">
          <mxGeometry x="680" y="290" width="46" height="130" as="geometry" />
        </mxCell>
        <mxCell id="qpCdRHngfCoECyfmMNlS-29" value="&lt;font style=&quot;font-size: 18px;&quot;&gt;Check in&lt;/font&gt;" style="rounded=1;whiteSpace=wrap;html=1;" vertex="1" parent="1">
          <mxGeometry x="300" y="110" width="230" height="50" as="geometry" />
        </mxCell>
        <mxCell id="qpCdRHngfCoECyfmMNlS-30" value="" style="shape=parallelogram;perimeter=parallelogramPerimeter;whiteSpace=wrap;html=1;fixedSize=1;" vertex="1" parent="1">
          <mxGeometry x="643" y="359.99999999999994" width="120" height="20" as="geometry" />
        </mxCell>
        <mxCell id="qpCdRHngfCoECyfmMNlS-36" value="" style="line;strokeWidth=2;direction=south;html=1;" vertex="1" parent="1">
          <mxGeometry x="643" y="380" width="10" height="53.35" as="geometry" />
        </mxCell>
        <mxCell id="qpCdRHngfCoECyfmMNlS-37" value="" style="line;strokeWidth=2;direction=south;html=1;" vertex="1" parent="1">
          <mxGeometry x="740" y="380" width="10" height="47" as="geometry" />
        </mxCell>
        <mxCell id="qpCdRHngfCoECyfmMNlS-38" value="" style="line;strokeWidth=2;direction=south;html=1;" vertex="1" parent="1">
          <mxGeometry x="660" y="380" width="10" height="40" as="geometry" />
        </mxCell>
        <mxCell id="qpCdRHngfCoECyfmMNlS-39" value="" style="line;strokeWidth=2;direction=south;html=1;" vertex="1" parent="1">
          <mxGeometry x="753" y="367" width="10" height="60" as="geometry" />
        </mxCell>
        <mxCell id="qpCdRHngfCoECyfmMNlS-67" value="&lt;font style=&quot;font-size: 18px;&quot;&gt;Cadastro de hospede&lt;/font&gt;" style="rounded=1;whiteSpace=wrap;html=1;" vertex="1" parent="1">
          <mxGeometry x="303.7" y="190" width="230" height="50" as="geometry" />
        </mxCell>
        <mxCell id="qpCdRHngfCoECyfmMNlS-68" value="&lt;font style=&quot;font-size: 18px;&quot;&gt;Suporte de limpeza&lt;/font&gt;" style="rounded=1;whiteSpace=wrap;html=1;" vertex="1" parent="1">
          <mxGeometry x="303.7" y="270" width="230" height="60" as="geometry" />
        </mxCell>
        <mxCell id="qpCdRHngfCoECyfmMNlS-69" value="&lt;font style=&quot;font-size: 18px;&quot;&gt;Realizar pagamento&lt;/font&gt;" style="rounded=1;whiteSpace=wrap;html=1;" vertex="1" parent="1">
          <mxGeometry x="305" y="349.40000000000003" width="230" height="60" as="geometry" />
        </mxCell>
        <mxCell id="qpCdRHngfCoECyfmMNlS-70" value="&lt;font style=&quot;font-size: 18px;&quot;&gt;Segurança&lt;/font&gt;" style="rounded=1;whiteSpace=wrap;html=1;" vertex="1" parent="1">
          <mxGeometry x="303.7" y="433.35" width="230" height="60" as="geometry" />
        </mxCell>
        <mxCell id="qpCdRHngfCoECyfmMNlS-75" value="" style="endArrow=none;html=1;rounded=0;entryX=0;entryY=0.5;entryDx=0;entryDy=0;" edge="1" parent="1" target="qpCdRHngfCoECyfmMNlS-29">
          <mxGeometry width="50" height="50" relative="1" as="geometry">
            <mxPoint x="160" y="280" as="sourcePoint" />
            <mxPoint x="210" y="230" as="targetPoint" />
          </mxGeometry>
        </mxCell>
        <mxCell id="qpCdRHngfCoECyfmMNlS-76" value="" style="endArrow=none;html=1;rounded=0;entryX=0;entryY=0.5;entryDx=0;entryDy=0;" edge="1" parent="1" target="qpCdRHngfCoECyfmMNlS-69">
          <mxGeometry width="50" height="50" relative="1" as="geometry">
            <mxPoint x="160" y="310" as="sourcePoint" />
            <mxPoint x="210" y="260" as="targetPoint" />
          </mxGeometry>
        </mxCell>
        <mxCell id="qpCdRHngfCoECyfmMNlS-77" value="" style="endArrow=none;html=1;rounded=0;exitX=1;exitY=0.5;exitDx=0;exitDy=0;" edge="1" parent="1" source="qpCdRHngfCoECyfmMNlS-29">
          <mxGeometry width="50" height="50" relative="1" as="geometry">
            <mxPoint x="610" y="340" as="sourcePoint" />
            <mxPoint x="660" y="290" as="targetPoint" />
          </mxGeometry>
        </mxCell>
        <mxCell id="qpCdRHngfCoECyfmMNlS-78" value="" style="endArrow=none;html=1;rounded=0;exitX=1;exitY=0.5;exitDx=0;exitDy=0;" edge="1" parent="1" source="qpCdRHngfCoECyfmMNlS-67">
          <mxGeometry width="50" height="50" relative="1" as="geometry">
            <mxPoint x="600" y="360" as="sourcePoint" />
            <mxPoint x="650" y="310" as="targetPoint" />
          </mxGeometry>
        </mxCell>
        <mxCell id="qpCdRHngfCoECyfmMNlS-79" value="" style="endArrow=none;html=1;rounded=0;exitX=1;exitY=0.5;exitDx=0;exitDy=0;" edge="1" parent="1" source="qpCdRHngfCoECyfmMNlS-68">
          <mxGeometry width="50" height="50" relative="1" as="geometry">
            <mxPoint x="600" y="380" as="sourcePoint" />
            <mxPoint x="650" y="330" as="targetPoint" />
          </mxGeometry>
        </mxCell>
        <mxCell id="qpCdRHngfCoECyfmMNlS-80" value="&lt;font style=&quot;font-size: 18px;&quot;&gt;Gerenciamento do hotel&lt;/font&gt;" style="rounded=1;whiteSpace=wrap;html=1;" vertex="1" parent="1">
          <mxGeometry x="300" y="520" width="240" height="60" as="geometry" />
        </mxCell>
        <mxCell id="qpCdRHngfCoECyfmMNlS-81" value="" style="endArrow=none;html=1;rounded=0;exitX=1;exitY=0.5;exitDx=0;exitDy=0;" edge="1" parent="1" source="qpCdRHngfCoECyfmMNlS-69">
          <mxGeometry width="50" height="50" relative="1" as="geometry">
            <mxPoint x="600" y="410" as="sourcePoint" />
            <mxPoint x="640" y="350" as="targetPoint" />
          </mxGeometry>
        </mxCell>
        <mxCell id="qpCdRHngfCoECyfmMNlS-82" value="" style="endArrow=none;html=1;rounded=0;exitX=1;exitY=0.5;exitDx=0;exitDy=0;" edge="1" parent="1" source="qpCdRHngfCoECyfmMNlS-70">
          <mxGeometry width="50" height="50" relative="1" as="geometry">
            <mxPoint x="580" y="440" as="sourcePoint" />
            <mxPoint x="640" y="360" as="targetPoint" />
          </mxGeometry>
        </mxCell>
        <mxCell id="qpCdRHngfCoECyfmMNlS-83" value="" style="endArrow=none;html=1;rounded=0;exitX=1;exitY=0.5;exitDx=0;exitDy=0;" edge="1" parent="1" source="qpCdRHngfCoECyfmMNlS-80">
          <mxGeometry width="50" height="50" relative="1" as="geometry">
            <mxPoint x="590" y="480" as="sourcePoint" />
            <mxPoint x="630" y="390" as="targetPoint" />
          </mxGeometry>
        </mxCell>
        <mxCell id="qpCdRHngfCoECyfmMNlS-84" value="&lt;font style=&quot;font-size: 18px;&quot;&gt;Conforto do ambiente&amp;nbsp;&lt;/font&gt;" style="rounded=1;whiteSpace=wrap;html=1;" vertex="1" parent="1">
          <mxGeometry x="300" y="600" width="240" height="60" as="geometry" />
        </mxCell>
        <mxCell id="qpCdRHngfCoECyfmMNlS-85" value="" style="endArrow=none;html=1;rounded=0;entryX=0;entryY=0.5;entryDx=0;entryDy=0;" edge="1" parent="1" target="qpCdRHngfCoECyfmMNlS-84">
          <mxGeometry width="50" height="50" relative="1" as="geometry">
            <mxPoint x="160" y="360" as="sourcePoint" />
            <mxPoint x="210" y="310" as="targetPoint" />
          </mxGeometry>
        </mxCell>
        <mxCell id="qpCdRHngfCoECyfmMNlS-86" value="" style="endArrow=none;html=1;rounded=0;entryX=0;entryY=0.5;entryDx=0;entryDy=0;" edge="1" parent="1" target="qpCdRHngfCoECyfmMNlS-68">
          <mxGeometry width="50" height="50" relative="1" as="geometry">
            <mxPoint x="170" y="300" as="sourcePoint" />
            <mxPoint x="220" y="260" as="targetPoint" />
          </mxGeometry>
        </mxCell>
        <mxCell id="qpCdRHngfCoECyfmMNlS-89" value="" style="endArrow=none;html=1;rounded=0;entryX=0;entryY=0.5;entryDx=0;entryDy=0;" edge="1" parent="1" target="qpCdRHngfCoECyfmMNlS-70">
          <mxGeometry width="50" height="50" relative="1" as="geometry">
            <mxPoint x="160" y="350" as="sourcePoint" />
            <mxPoint x="210" y="300" as="targetPoint" />
          </mxGeometry>
        </mxCell>
        <mxCell id="qpCdRHngfCoECyfmMNlS-90" value="" style="endArrow=none;html=1;rounded=0;exitX=1;exitY=0.5;exitDx=0;exitDy=0;" edge="1" parent="1" source="qpCdRHngfCoECyfmMNlS-84">
          <mxGeometry width="50" height="50" relative="1" as="geometry">
            <mxPoint x="610" y="500" as="sourcePoint" />
            <mxPoint x="630" y="430" as="targetPoint" />
          </mxGeometry>
        </mxCell>
        <mxCell id="qpCdRHngfCoECyfmMNlS-95" value="&lt;br&gt;&lt;div&gt;&lt;font style=&quot;font-size: 14px;&quot;&gt;Recepcionista&lt;/font&gt;&lt;/div&gt;" style="whiteSpace=wrap;html=1;verticalAlign=top;rotation=0;" vertex="1" parent="1">
          <mxGeometry x="643" y="535" width="120" height="60" as="geometry" />
        </mxCell>
        <mxCell id="qpCdRHngfCoECyfmMNlS-97" value="&lt;div&gt;&lt;br&gt;&lt;/div&gt;&lt;div&gt;&lt;font size=&quot;3&quot;&gt;Cliente&lt;/font&gt;&lt;/div&gt;" style="whiteSpace=wrap;html=1;verticalAlign=top;" vertex="1" parent="1">
          <mxGeometry x="70" y="535" width="105" height="60" as="geometry" />
        </mxCell>
        <mxCell id="qpCdRHngfCoECyfmMNlS-100" value="" style="ellipse;whiteSpace=wrap;html=1;" vertex="1" parent="1">
          <mxGeometry x="61.5" y="280" width="107" height="20" as="geometry" />
        </mxCell>
        <mxCell id="qpCdRHngfCoECyfmMNlS-114" value="" style="shape=datastore;whiteSpace=wrap;html=1;" vertex="1" parent="1">
          <mxGeometry x="100" y="260" width="30" height="30" as="geometry" />
        </mxCell>
      </root>
    </mxGraphModel>
  </diagram>
  <diagram id="8VK0WjtRUCWUX2AxvQD0" name="Site EAD">
    <mxGraphModel dx="2927" dy="2283" grid="1" gridSize="10" guides="1" tooltips="1" connect="1" arrows="1" fold="1" page="1" pageScale="1" pageWidth="827" pageHeight="1169" math="0" shadow="0">
      <root>
        <mxCell id="0" />
        <mxCell id="1" parent="0" />
        <mxCell id="9LrcEuHv_YfgtnYL-jt3-7" value="" style="edgeStyle=orthogonalEdgeStyle;rounded=0;orthogonalLoop=1;jettySize=auto;html=1;" edge="1" parent="1" source="9LrcEuHv_YfgtnYL-jt3-1" target="9LrcEuHv_YfgtnYL-jt3-6">
          <mxGeometry relative="1" as="geometry" />
        </mxCell>
        <mxCell id="9LrcEuHv_YfgtnYL-jt3-11" value="" style="edgeStyle=orthogonalEdgeStyle;rounded=0;orthogonalLoop=1;jettySize=auto;html=1;" edge="1" parent="1" source="9LrcEuHv_YfgtnYL-jt3-1" target="9LrcEuHv_YfgtnYL-jt3-10">
          <mxGeometry relative="1" as="geometry" />
        </mxCell>
        <mxCell id="9LrcEuHv_YfgtnYL-jt3-13" value="" style="edgeStyle=orthogonalEdgeStyle;rounded=0;orthogonalLoop=1;jettySize=auto;html=1;" edge="1" parent="1" source="9LrcEuHv_YfgtnYL-jt3-1" target="9LrcEuHv_YfgtnYL-jt3-12">
          <mxGeometry relative="1" as="geometry" />
        </mxCell>
        <mxCell id="9LrcEuHv_YfgtnYL-jt3-1" value="Nosso Site&lt;div&gt;CSES EAD&lt;/div&gt;" style="rounded=1;whiteSpace=wrap;html=1;" vertex="1" parent="1">
          <mxGeometry x="310" y="60" width="120" height="60" as="geometry" />
        </mxCell>
        <mxCell id="9LrcEuHv_YfgtnYL-jt3-16" value="" style="edgeStyle=orthogonalEdgeStyle;rounded=0;orthogonalLoop=1;jettySize=auto;html=1;exitX=0.55;exitY=0.95;exitDx=0;exitDy=0;exitPerimeter=0;entryX=0;entryY=0.5;entryDx=0;entryDy=0;" edge="1" parent="1" source="9LrcEuHv_YfgtnYL-jt3-6" target="9LrcEuHv_YfgtnYL-jt3-15">
          <mxGeometry relative="1" as="geometry">
            <mxPoint x="110" y="160" as="sourcePoint" />
            <mxPoint x="250" y="250" as="targetPoint" />
            <Array as="points">
              <mxPoint x="176" y="210" />
            </Array>
          </mxGeometry>
        </mxCell>
        <mxCell id="fMDCvHo4p8OF5SkyQHIO-15" style="edgeStyle=orthogonalEdgeStyle;rounded=0;orthogonalLoop=1;jettySize=auto;html=1;exitX=0.55;exitY=0.95;exitDx=0;exitDy=0;exitPerimeter=0;entryX=0;entryY=0.5;entryDx=0;entryDy=0;" edge="1" parent="1" source="9LrcEuHv_YfgtnYL-jt3-6" target="fMDCvHo4p8OF5SkyQHIO-8">
          <mxGeometry relative="1" as="geometry">
            <Array as="points">
              <mxPoint x="176" y="560" />
            </Array>
          </mxGeometry>
        </mxCell>
        <mxCell id="9LrcEuHv_YfgtnYL-jt3-6" value="&lt;font style=&quot;font-size: 14px;&quot;&gt;Aluno&lt;/font&gt;" style="ellipse;shape=cloud;whiteSpace=wrap;html=1;rounded=1;" vertex="1" parent="1">
          <mxGeometry x="110" y="50" width="120" height="80" as="geometry" />
        </mxCell>
        <mxCell id="fMDCvHo4p8OF5SkyQHIO-14" style="edgeStyle=orthogonalEdgeStyle;rounded=0;orthogonalLoop=1;jettySize=auto;html=1;exitX=0.55;exitY=0.95;exitDx=0;exitDy=0;exitPerimeter=0;entryX=1;entryY=0.5;entryDx=0;entryDy=0;" edge="1" parent="1" source="9LrcEuHv_YfgtnYL-jt3-10" target="fMDCvHo4p8OF5SkyQHIO-8">
          <mxGeometry relative="1" as="geometry">
            <Array as="points">
              <mxPoint x="576" y="560" />
            </Array>
          </mxGeometry>
        </mxCell>
        <mxCell id="9LrcEuHv_YfgtnYL-jt3-10" value="&lt;font style=&quot;font-size: 14px;&quot;&gt;Professores&lt;/font&gt;" style="ellipse;shape=cloud;whiteSpace=wrap;html=1;rounded=1;" vertex="1" parent="1">
          <mxGeometry x="510" y="50" width="120" height="80" as="geometry" />
        </mxCell>
        <mxCell id="fMDCvHo4p8OF5SkyQHIO-13" style="edgeStyle=orthogonalEdgeStyle;rounded=0;orthogonalLoop=1;jettySize=auto;html=1;exitX=0.96;exitY=0.7;exitDx=0;exitDy=0;exitPerimeter=0;entryX=1;entryY=0.5;entryDx=0;entryDy=0;" edge="1" parent="1" source="9LrcEuHv_YfgtnYL-jt3-12" target="fMDCvHo4p8OF5SkyQHIO-8">
          <mxGeometry relative="1" as="geometry">
            <Array as="points">
              <mxPoint x="640" y="-34" />
              <mxPoint x="640" y="560" />
            </Array>
          </mxGeometry>
        </mxCell>
        <mxCell id="EXIkku_iD01yHKN2GRZ2-1" style="edgeStyle=orthogonalEdgeStyle;rounded=0;orthogonalLoop=1;jettySize=auto;html=1;exitX=0.96;exitY=0.7;exitDx=0;exitDy=0;exitPerimeter=0;entryX=0;entryY=0.5;entryDx=0;entryDy=0;" edge="1" parent="1" source="9LrcEuHv_YfgtnYL-jt3-12" target="O1GPynmVK8Ml8aYDecd6-2">
          <mxGeometry relative="1" as="geometry" />
        </mxCell>
        <mxCell id="9LrcEuHv_YfgtnYL-jt3-12" value="&lt;font style=&quot;font-size: 14px;&quot;&gt;Desenvolvedores&lt;/font&gt;" style="ellipse;shape=cloud;whiteSpace=wrap;html=1;rounded=1;" vertex="1" parent="1">
          <mxGeometry x="390" y="-90" width="180" height="80" as="geometry" />
        </mxCell>
        <mxCell id="9LrcEuHv_YfgtnYL-jt3-15" value="&lt;font style=&quot;font-size: 14px;&quot;&gt;Cadastro&lt;/font&gt;" style="whiteSpace=wrap;html=1;rounded=1;" vertex="1" parent="1">
          <mxGeometry x="310" y="180" width="120" height="60" as="geometry" />
        </mxCell>
        <mxCell id="9LrcEuHv_YfgtnYL-jt3-17" value="" style="endArrow=classic;html=1;rounded=0;entryX=1;entryY=0.5;entryDx=0;entryDy=0;exitX=0.55;exitY=0.95;exitDx=0;exitDy=0;exitPerimeter=0;" edge="1" parent="1" source="9LrcEuHv_YfgtnYL-jt3-10" target="9LrcEuHv_YfgtnYL-jt3-15">
          <mxGeometry width="50" height="50" relative="1" as="geometry">
            <mxPoint x="460" y="190" as="sourcePoint" />
            <mxPoint x="530.7106781186548" y="190" as="targetPoint" />
            <Array as="points">
              <mxPoint x="576" y="210" />
            </Array>
          </mxGeometry>
        </mxCell>
        <mxCell id="9LrcEuHv_YfgtnYL-jt3-18" value="&lt;font size=&quot;3&quot;&gt;Dados&lt;/font&gt;" style="rounded=1;whiteSpace=wrap;html=1;" vertex="1" parent="1">
          <mxGeometry x="310" y="250" width="120" height="60" as="geometry" />
        </mxCell>
        <mxCell id="9LrcEuHv_YfgtnYL-jt3-21" value="" style="endArrow=classic;html=1;rounded=0;entryX=1;entryY=0.5;entryDx=0;entryDy=0;exitX=0.55;exitY=0.95;exitDx=0;exitDy=0;exitPerimeter=0;" edge="1" parent="1" source="9LrcEuHv_YfgtnYL-jt3-10" target="9LrcEuHv_YfgtnYL-jt3-18">
          <mxGeometry width="50" height="50" relative="1" as="geometry">
            <mxPoint x="510" y="310" as="sourcePoint" />
            <mxPoint x="560" y="260" as="targetPoint" />
            <Array as="points">
              <mxPoint x="576" y="280" />
            </Array>
          </mxGeometry>
        </mxCell>
        <mxCell id="9LrcEuHv_YfgtnYL-jt3-22" value="&lt;font size=&quot;3&quot;&gt;Comunidades&lt;/font&gt;" style="rounded=1;whiteSpace=wrap;html=1;" vertex="1" parent="1">
          <mxGeometry x="310" y="320" width="120" height="60" as="geometry" />
        </mxCell>
        <mxCell id="9LrcEuHv_YfgtnYL-jt3-23" value="" style="endArrow=classic;html=1;rounded=0;exitX=0.55;exitY=0.95;exitDx=0;exitDy=0;exitPerimeter=0;entryX=0;entryY=0.5;entryDx=0;entryDy=0;" edge="1" parent="1" source="9LrcEuHv_YfgtnYL-jt3-6" target="9LrcEuHv_YfgtnYL-jt3-22">
          <mxGeometry width="50" height="50" relative="1" as="geometry">
            <mxPoint x="200" y="380" as="sourcePoint" />
            <mxPoint x="250" y="330" as="targetPoint" />
            <Array as="points">
              <mxPoint x="176" y="350" />
            </Array>
          </mxGeometry>
        </mxCell>
        <mxCell id="9LrcEuHv_YfgtnYL-jt3-24" value="" style="endArrow=classic;html=1;rounded=0;entryX=1;entryY=0.5;entryDx=0;entryDy=0;exitX=0.55;exitY=0.95;exitDx=0;exitDy=0;exitPerimeter=0;" edge="1" parent="1" source="9LrcEuHv_YfgtnYL-jt3-10" target="9LrcEuHv_YfgtnYL-jt3-22">
          <mxGeometry width="50" height="50" relative="1" as="geometry">
            <mxPoint x="600" y="400" as="sourcePoint" />
            <mxPoint x="650" y="350" as="targetPoint" />
            <Array as="points">
              <mxPoint x="576" y="350" />
            </Array>
          </mxGeometry>
        </mxCell>
        <mxCell id="fMDCvHo4p8OF5SkyQHIO-1" value="&lt;font style=&quot;font-size: 14px;&quot;&gt;Aulas EAD&lt;/font&gt;" style="rounded=1;whiteSpace=wrap;html=1;" vertex="1" parent="1">
          <mxGeometry x="310" y="390" width="120" height="60" as="geometry" />
        </mxCell>
        <mxCell id="fMDCvHo4p8OF5SkyQHIO-2" value="" style="endArrow=classic;html=1;rounded=0;entryX=0;entryY=0.5;entryDx=0;entryDy=0;exitX=0.55;exitY=0.95;exitDx=0;exitDy=0;exitPerimeter=0;" edge="1" parent="1" source="9LrcEuHv_YfgtnYL-jt3-6" target="fMDCvHo4p8OF5SkyQHIO-1">
          <mxGeometry width="50" height="50" relative="1" as="geometry">
            <mxPoint x="180" y="460" as="sourcePoint" />
            <mxPoint x="230" y="410" as="targetPoint" />
            <Array as="points">
              <mxPoint x="176" y="420" />
            </Array>
          </mxGeometry>
        </mxCell>
        <mxCell id="fMDCvHo4p8OF5SkyQHIO-4" value="" style="endArrow=classic;html=1;rounded=0;entryX=1;entryY=0.5;entryDx=0;entryDy=0;exitX=0.55;exitY=0.95;exitDx=0;exitDy=0;exitPerimeter=0;" edge="1" parent="1" source="9LrcEuHv_YfgtnYL-jt3-10" target="fMDCvHo4p8OF5SkyQHIO-1">
          <mxGeometry width="50" height="50" relative="1" as="geometry">
            <mxPoint x="480" y="440" as="sourcePoint" />
            <mxPoint x="530" y="390" as="targetPoint" />
            <Array as="points">
              <mxPoint x="576" y="420" />
            </Array>
          </mxGeometry>
        </mxCell>
        <mxCell id="fMDCvHo4p8OF5SkyQHIO-5" value="Registro de desempenho" style="rounded=1;whiteSpace=wrap;html=1;" vertex="1" parent="1">
          <mxGeometry x="310" y="460" width="120" height="60" as="geometry" />
        </mxCell>
        <mxCell id="fMDCvHo4p8OF5SkyQHIO-6" value="" style="endArrow=classic;html=1;rounded=0;entryX=0;entryY=0.5;entryDx=0;entryDy=0;exitX=0.55;exitY=0.95;exitDx=0;exitDy=0;exitPerimeter=0;" edge="1" parent="1" source="9LrcEuHv_YfgtnYL-jt3-6" target="fMDCvHo4p8OF5SkyQHIO-5">
          <mxGeometry width="50" height="50" relative="1" as="geometry">
            <mxPoint x="190" y="530" as="sourcePoint" />
            <mxPoint x="240" y="480" as="targetPoint" />
            <Array as="points">
              <mxPoint x="176" y="490" />
            </Array>
          </mxGeometry>
        </mxCell>
        <mxCell id="fMDCvHo4p8OF5SkyQHIO-7" value="" style="endArrow=classic;html=1;rounded=0;entryX=1;entryY=0.5;entryDx=0;entryDy=0;exitX=0.55;exitY=0.95;exitDx=0;exitDy=0;exitPerimeter=0;" edge="1" parent="1" source="9LrcEuHv_YfgtnYL-jt3-10" target="fMDCvHo4p8OF5SkyQHIO-5">
          <mxGeometry width="50" height="50" relative="1" as="geometry">
            <mxPoint x="450" y="540" as="sourcePoint" />
            <mxPoint x="500" y="490" as="targetPoint" />
            <Array as="points">
              <mxPoint x="576" y="490" />
            </Array>
          </mxGeometry>
        </mxCell>
        <mxCell id="fMDCvHo4p8OF5SkyQHIO-8" value="Plano de estudos" style="rounded=1;whiteSpace=wrap;html=1;" vertex="1" parent="1">
          <mxGeometry x="310" y="530" width="120" height="60" as="geometry" />
        </mxCell>
        <mxCell id="fMDCvHo4p8OF5SkyQHIO-9" value="&lt;font style=&quot;font-size: 14px;&quot;&gt;Gerencia&lt;/font&gt;" style="ellipse;shape=cloud;whiteSpace=wrap;html=1;" vertex="1" parent="1">
          <mxGeometry x="190" y="-90" width="160" height="80" as="geometry" />
        </mxCell>
        <mxCell id="fMDCvHo4p8OF5SkyQHIO-11" style="edgeStyle=orthogonalEdgeStyle;rounded=0;orthogonalLoop=1;jettySize=auto;html=1;exitX=0.55;exitY=0.95;exitDx=0;exitDy=0;exitPerimeter=0;entryX=0.5;entryY=0;entryDx=0;entryDy=0;" edge="1" parent="1" source="fMDCvHo4p8OF5SkyQHIO-9" target="9LrcEuHv_YfgtnYL-jt3-1">
          <mxGeometry relative="1" as="geometry" />
        </mxCell>
        <mxCell id="O1GPynmVK8Ml8aYDecd6-1" value="Aluno" style="shape=umlActor;verticalLabelPosition=bottom;verticalAlign=top;html=1;outlineConnect=0;" vertex="1" parent="1">
          <mxGeometry x="-180" y="-10" width="90" height="170" as="geometry" />
        </mxCell>
        <mxCell id="O1GPynmVK8Ml8aYDecd6-2" value="&lt;font style=&quot;font-size: 14px;&quot;&gt;Manutenção do sistema&lt;/font&gt;" style="rounded=1;whiteSpace=wrap;html=1;" vertex="1" parent="1">
          <mxGeometry x="707" y="-70" width="120" height="60" as="geometry" />
        </mxCell>
      </root>
    </mxGraphModel>
  </diagram>
</mxfile>
